<?xml version="1.0" encoding="UTF-8" standalone="no"?>
<!-- Created with Inkscape (http://www.inkscape.org/) -->
<svg
   xmlns:dc="http://purl.org/dc/elements/1.1/"
   xmlns:cc="http://creativecommons.org/ns#"
   xmlns:rdf="http://www.w3.org/1999/02/22-rdf-syntax-ns#"
   xmlns:svg="http://www.w3.org/2000/svg"
   xmlns="http://www.w3.org/2000/svg"
   xmlns:sodipodi="http://sodipodi.sourceforge.net/DTD/sodipodi-0.dtd"
   xmlns:inkscape="http://www.inkscape.org/namespaces/inkscape"
   width="210mm"
   height="297mm"
   id="svg2"
   sodipodi:version="0.32"
   inkscape:version="0.46"
   sodipodi:docname="vost-lazaro-charisma-16.svg"
   inkscape:output_extension="org.inkscape.output.svg.inkscape"
   inkscape:export-filename="/home/arne/ews/Quelldateien/bilder-fuer-vobsy-steigerung/vost-lazaro-charisma-16-mod.png"
   inkscape:export-xdpi="150"
   inkscape:export-ydpi="150">
  <defs
     id="defs4">
    <inkscape:perspective
       sodipodi:type="inkscape:persp3d"
       inkscape:vp_x="0 : 526.18109 : 1"
       inkscape:vp_y="0 : 1000 : 0"
       inkscape:vp_z="744.09448 : 526.18109 : 1"
       inkscape:persp3d-origin="372.04724 : 350.78739 : 1"
       id="perspective10" />
  </defs>
  <sodipodi:namedview
     id="base"
     pagecolor="#ffffff"
     bordercolor="#666666"
     borderopacity="1.0"
     inkscape:pageopacity="0.0"
     inkscape:pageshadow="2"
     inkscape:zoom="1.979899"
     inkscape:cx="480.34033"
     inkscape:cy="575.37892"
     inkscape:document-units="px"
     inkscape:current-layer="layer1"
     showgrid="false"
     inkscape:window-width="1278"
     inkscape:window-height="943"
     inkscape:window-x="0"
     inkscape:window-y="0" />
  <metadata
     id="metadata7">
    <rdf:RDF>
      <cc:Work
         rdf:about="">
        <dc:format>image/svg+xml</dc:format>
        <dc:type
           rdf:resource="http://purl.org/dc/dcmitype/StillImage" />
      </cc:Work>
    </rdf:RDF>
  </metadata>
  <g
     inkscape:label="Ebene 1"
     inkscape:groupmode="layer"
     id="layer1">
    <path
       style="fill:none;fill-opacity:0.75;fill-rule:evenodd;stroke:#000000;stroke-width:1px;stroke-linecap:butt;stroke-linejoin:miter;stroke-opacity:1"
       d="M 274.25642,416.47115 C 276.05525,414.59112 281.04578,414.95593 284.86302,414.95593 C 289.33586,414.95593 293.48587,415.461 297.995,415.461 C 300.40571,415.461 302.33096,415.38717 304.05592,414.95593"
       id="path2407"
       inkscape:export-filename="/home/arne/ews/Quelldateien/bilder-fuer-vobsy-steigerung/vost-lazaro-charisma-16-mod.png"
       inkscape:export-xdpi="150"
       inkscape:export-ydpi="150" />
    <path
       style="fill:none;fill-opacity:0.75;fill-rule:evenodd;stroke:#000000;stroke-width:1px;stroke-linecap:butt;stroke-linejoin:miter;stroke-opacity:1"
       d="M 289.4087,402.34932 C 289.4087,403.01489 289.91378,407.89083 289.91378,410.43054 C 289.91378,412.43007 290.41886,414.88325 290.41886,417.50161 C 290.41886,419.46201 290.92393,422.2694 290.92393,424.57268 C 290.92393,425.9515 290.58167,427.45697 290.41886,428.10821"
       id="path2413"
       inkscape:export-filename="/home/arne/ews/Quelldateien/bilder-fuer-vobsy-steigerung/vost-lazaro-charisma-16-mod.png"
       inkscape:export-xdpi="150"
       inkscape:export-ydpi="150" />
    <path
       style="fill:none;fill-opacity:0.75;fill-rule:evenodd;stroke:#000000;stroke-width:1px;stroke-linecap:butt;stroke-linejoin:miter;stroke-opacity:1"
       d="M 270.2158,411.92547 C 270.2158,413.83755 274.45596,407.78715 277.79195,403.33917 C 279.70471,400.78882 282.27235,398.85876 283.85286,397.27825 C 284.02122,397.1099 284.18958,396.94154 284.35794,396.77318"
       id="path2415"
       inkscape:export-filename="/home/arne/ews/Quelldateien/bilder-fuer-vobsy-steigerung/vost-lazaro-charisma-16-mod.png"
       inkscape:export-xdpi="150"
       inkscape:export-ydpi="150" />
    <path
       style="fill:none;fill-opacity:0.75;fill-rule:evenodd;stroke:#000000;stroke-width:1px;stroke-linecap:butt;stroke-linejoin:miter;stroke-opacity:1"
       d="M 250.51783,492.73767 C 250.51783,492.73767 250.51783,492.73767 250.51783,492.73767 z"
       id="path2421"
       inkscape:export-filename="/home/arne/ews/Quelldateien/bilder-fuer-vobsy-steigerung/vost-lazaro-kunst-des-flirtens-15-mod.png"
       inkscape:export-xdpi="150"
       inkscape:export-ydpi="150" />
    <path
       style="fill:none;fill-opacity:0.75;fill-rule:evenodd;stroke:#000000;stroke-width:1px;stroke-linecap:butt;stroke-linejoin:miter;stroke-opacity:1"
       d="M 315.16759,411.23888 C 315.16759,413.15096 319.40775,407.10056 322.74374,402.65258 C 324.6565,400.10223 327.22414,398.17217 328.80465,396.59166 C 328.97301,396.42331 329.14137,396.25495 329.30973,396.08659"
       id="path2433"
       inkscape:transform-center-x="19.192898"
       inkscape:transform-center-y="8.2576595"
       inkscape:export-filename="/home/arne/ews/Quelldateien/bilder-fuer-vobsy-steigerung/vost-lazaro-charisma-16-mod.png"
       inkscape:export-xdpi="150"
       inkscape:export-ydpi="150" />
    <path
       style="fill:none;fill-opacity:0.75;fill-rule:evenodd;stroke:#000000;stroke-width:1px;stroke-linecap:butt;stroke-linejoin:miter;stroke-opacity:1"
       d="M 382.84781,380.61074 C 385.03914,381.15857 378.38409,382.04401 376.7869,383.6412 C 373.41093,387.01717 371.63545,393.74107 370.72598,398.28841 C 369.37551,405.04078 367.99947,410.61587 369.71583,417.48131 C 370.7387,421.57278 369.27153,427.47176 373.75644,428.59299 C 377.64021,429.56393 381.07968,421.71178 382.84781,419.50161"
       id="path2459"
       inkscape:export-filename="/home/arne/ews/Quelldateien/bilder-fuer-vobsy-steigerung/vost-lazaro-charisma-16-name.png"
       inkscape:export-xdpi="150"
       inkscape:export-ydpi="150" />
    <path
       style="fill:none;fill-opacity:0.75;fill-rule:evenodd;stroke:#000000;stroke-width:1px;stroke-linecap:butt;stroke-linejoin:miter;stroke-opacity:1"
       d="M 392.94934,379.09551 C 395.44927,375.9706 389.91888,386.71042 389.91888,390.71227 C 389.91888,400.18562 387.5424,410.14456 389.41381,419.50161 C 390.56178,425.24149 390.10689,420.07682 390.92904,415.96608 C 392.32236,408.99943 392.87608,403.48376 399.51533,401.82394 C 405.971,400.21003 400.52548,413.87485 400.52548,416.47115 C 400.52548,420.85507 403.9243,421.1452 407.09148,420.51177"
       id="path2461"
       inkscape:export-filename="/home/arne/ews/Quelldateien/bilder-fuer-vobsy-steigerung/vost-lazaro-charisma-16-name.png"
       inkscape:export-xdpi="150"
       inkscape:export-ydpi="150" />
    <path
       style="fill:none;fill-opacity:0.75;fill-rule:evenodd;stroke:#000000;stroke-width:1px;stroke-linecap:butt;stroke-linejoin:miter;stroke-opacity:1"
       d="M 423.25392,408.38993 C 423.25392,410.47242 419.05563,405.94339 417.193,406.87471 C 413.15921,408.8916 412.41858,415.99782 414.66762,418.99654 C 417.80616,423.18126 423.67999,404.98133 423.75899,404.34932 C 424.04493,402.06185 422.93754,411.16691 425.7793,414.95593 C 427.13365,416.76173 428.77004,415.84974 430.32498,415.461"
       id="path2463"
       inkscape:export-filename="/home/arne/ews/Quelldateien/bilder-fuer-vobsy-steigerung/vost-lazaro-charisma-16-name.png"
       inkscape:export-xdpi="150"
       inkscape:export-ydpi="150" />
    <path
       style="fill:none;fill-opacity:0.75;fill-rule:evenodd;stroke:#000000;stroke-width:1px;stroke-linecap:butt;stroke-linejoin:miter;stroke-opacity:1"
       d="M 436.3859,407.88486 C 436.42872,407.94195 437.56123,402.00822 436.3859,407.88486 C 434.37393,417.94472 436.89098,429.91292 436.89098,412.93562 C 436.89098,405.49607 439.44237,410.10199 445.47727,408.89501"
       id="path2465"
       inkscape:export-filename="/home/arne/ews/Quelldateien/bilder-fuer-vobsy-steigerung/vost-lazaro-charisma-16-name.png"
       inkscape:export-xdpi="150"
       inkscape:export-ydpi="150" />
    <path
       style="fill:none;fill-opacity:0.75;fill-rule:evenodd;stroke:#000000;stroke-width:1px;stroke-linecap:butt;stroke-linejoin:miter;stroke-opacity:1"
       d="M 450.52804,406.36963 C 450.52804,405.49663 449.28795,412.52095 451.03311,419.50161 C 451.92102,423.05324 455.1781,417.27256 455.5788,416.47115"
       id="path2467"
       inkscape:export-filename="/home/arne/ews/Quelldateien/bilder-fuer-vobsy-steigerung/vost-lazaro-charisma-16-name.png"
       inkscape:export-xdpi="150"
       inkscape:export-ydpi="150" />
    <path
       style="fill:none;fill-opacity:0.75;fill-rule:evenodd;stroke:#000000;stroke-width:1px;stroke-linecap:butt;stroke-linejoin:miter;stroke-opacity:1"
       d="M 450.02296,389.70211 C 450.37184,391.09762 446.62565,389.93075 445.98235,391.21734 C 442.07754,399.02695 459.73656,386.46425 446.9925,390.71227"
       id="path2469"
       inkscape:export-filename="/home/arne/ews/Quelldateien/bilder-fuer-vobsy-steigerung/vost-lazaro-charisma-16-name.png"
       inkscape:export-xdpi="150"
       inkscape:export-ydpi="150" />
    <path
       style="fill:none;fill-opacity:0.75;fill-rule:evenodd;stroke:#000000;stroke-width:1px;stroke-linecap:butt;stroke-linejoin:miter;stroke-opacity:1"
       d="M 468.20571,406.87471 C 467.72878,407.82856 460.61919,407.87449 465.68032,412.93562 C 469.43048,416.68577 467.34705,419.35012 464.67017,422.02699"
       id="path2471"
       inkscape:export-filename="/home/arne/ews/Quelldateien/bilder-fuer-vobsy-steigerung/vost-lazaro-charisma-16-name.png"
       inkscape:export-xdpi="150"
       inkscape:export-ydpi="150" />
    <path
       style="fill:none;fill-opacity:0.75;fill-rule:evenodd;stroke:#000000;stroke-width:1px;stroke-linecap:butt;stroke-linejoin:miter;stroke-opacity:1"
       d="M 479.82246,406.87471 C 481.67058,408.72282 478.43605,411.91526 477.80215,414.45085 C 474.89874,426.0645 478.90622,416.28332 480.83261,412.43054 C 484.66064,404.77449 487.3986,408.03185 487.3986,414.95593 C 487.3986,425.00038 486.07653,420.35821 489.92398,413.94577 C 494.64858,406.07144 496.99505,405.12177 496.99505,414.45085 C 496.99505,417.5257 494.90457,423.18096 499.52043,422.02699"
       id="path2473"
       inkscape:export-filename="/home/arne/ews/Quelldateien/bilder-fuer-vobsy-steigerung/vost-lazaro-charisma-16-name.png"
       inkscape:export-xdpi="150"
       inkscape:export-ydpi="150" />
    <path
       style="fill:none;fill-opacity:0.75;fill-rule:evenodd;stroke:#000000;stroke-width:1px;stroke-linecap:butt;stroke-linejoin:miter;stroke-opacity:1"
       d="M 515.1778,408.89501 C 515.1778,410.75459 510.93688,408.08516 509.62196,409.40009 C 505.59438,413.42767 505.63819,420.56861 509.11688,424.0473 C 511.25884,426.18925 517.47326,412.72078 515.1778,408.89501 C 513.8785,406.72951 515.67307,413.99481 515.1778,416.47115 C 514.28103,420.95498 515.18187,425.05582 520.22856,423.03715"
       id="path2475"
       inkscape:export-filename="/home/arne/ews/Quelldateien/bilder-fuer-vobsy-steigerung/vost-lazaro-charisma-16-name.png"
       inkscape:export-xdpi="150"
       inkscape:export-ydpi="150" />
    <path
       style="fill:none;fill-opacity:0.75;fill-rule:evenodd;stroke:#000000;stroke-width:1px;stroke-linecap:butt;stroke-linejoin:miter;stroke-opacity:1"
       d="M 546.9976,398.28841 C 546.92289,398.66196 557.01708,387.76386 558.10928,386.67165 C 558.30003,386.4809 557.60421,394.06019 557.60421,400.81379 C 557.60421,408.3302 556.31893,417.11584 557.60421,423.54222"
       id="path2477"
       inkscape:export-filename="/home/arne/ews/Quelldateien/bilder-fuer-vobsy-steigerung/vost-lazaro-charisma-16-wert.png"
       inkscape:export-xdpi="150"
       inkscape:export-ydpi="150" />
    <path
       style="fill:none;fill-opacity:0.75;fill-rule:evenodd;stroke:#000000;stroke-width:1px;stroke-linecap:butt;stroke-linejoin:miter;stroke-opacity:1"
       d="M 582.85802,387.68181 C 582.85802,389.43952 578.86189,387.79086 577.80726,389.19704 C 570.32808,399.16927 572.115,415.55682 575.78695,426.57268 C 576.86223,429.79851 588.91705,413.94389 581.84787,406.87471 C 578.80199,403.82883 577.78429,406.92064 576.29203,409.90516"
       id="path2479"
       inkscape:export-filename="/home/arne/ews/Quelldateien/bilder-fuer-vobsy-steigerung/vost-lazaro-charisma-16-wert.png"
       inkscape:export-xdpi="150"
       inkscape:export-ydpi="150" />
    <path
       style="fill:none;fill-opacity:0.75;fill-rule:evenodd;stroke:#000000;stroke-width:1px;stroke-linecap:butt;stroke-linejoin:miter;stroke-opacity:1"
       d="M 277.28687,507.88996 C 278.70303,507.18188 287.07162,507.38488 290.41886,507.38488 C 293.33567,507.38488 296.39692,507.53187 299.00515,506.87981"
       id="path2487"
       inkscape:export-filename="/home/arne/ews/Quelldateien/bilder-fuer-vobsy-steigerung/vost-lazaro-kunst-des-flirtens-15-mod.png"
       inkscape:export-xdpi="150"
       inkscape:export-ydpi="150" />
    <path
       style="fill:none;fill-opacity:0.75;fill-rule:evenodd;stroke:#000000;stroke-width:1px;stroke-linecap:butt;stroke-linejoin:miter;stroke-opacity:1"
       d="M 288.90363,495.26305 C 292.77588,495.26305 287.96447,503.12317 288.90363,506.87981 C 289.94312,511.03776 289.4087,516.14484 289.4087,520.51687 C 289.4087,520.77083 289.00643,522.52826 288.90363,523.04225"
       id="path2489"
       inkscape:export-filename="/home/arne/ews/Quelldateien/bilder-fuer-vobsy-steigerung/vost-lazaro-kunst-des-flirtens-15-mod.png"
       inkscape:export-xdpi="150"
       inkscape:export-ydpi="150" />
    <path
       style="fill:none;fill-opacity:0.75;fill-rule:evenodd;stroke:#000000;stroke-width:1px;stroke-linecap:butt;stroke-linejoin:miter;stroke-opacity:1"
       d="M 271.22596,504.35443 C 273.51609,502.06429 276.88402,494.2509 279.30718,490.21229 C 281.09055,487.24 282.86715,484.63202 284.86302,482.63615 C 284.98207,482.5171 284.86302,482.97286 284.86302,483.14122"
       id="path2493"
       inkscape:export-filename="/home/arne/ews/Quelldateien/bilder-fuer-vobsy-steigerung/vost-lazaro-kunst-des-flirtens-15-mod.png"
       inkscape:export-xdpi="150"
       inkscape:export-ydpi="150" />
    <path
       style="fill:none;fill-opacity:0.75;fill-rule:evenodd;stroke:#000000;stroke-width:1px;stroke-linecap:butt;stroke-linejoin:miter;stroke-opacity:1"
       d="M 309.61176,504.35443 C 312.01972,501.94646 315.60562,494.387 317.69298,490.21229 C 319.03344,487.53137 321.53091,485.0618 322.23866,483.6463"
       id="path2495"
       inkscape:export-filename="/home/arne/ews/Quelldateien/bilder-fuer-vobsy-steigerung/vost-lazaro-kunst-des-flirtens-15-mod.png"
       inkscape:export-xdpi="150"
       inkscape:export-ydpi="150" />
    <path
       style="fill:none;fill-opacity:0.75;fill-rule:evenodd;stroke:#000000;stroke-width:1px;stroke-linecap:butt;stroke-linejoin:miter;stroke-opacity:1"
       d="M 373.25137,477.58538 C 373.28602,477.51608 371.73614,488.0976 371.73614,498.79859 C 371.73614,503.61934 370.22091,508.13234 370.22091,512.94072 C 370.22091,514.29807 369.71583,515.62398 369.71583,516.98133"
       id="path2497"
       inkscape:export-filename="/home/arne/ews/Quelldateien/bilder-fuer-vobsy-steigerung/vost-lazaro-kunst-des-flirtens-15-name.png"
       inkscape:export-xdpi="150"
       inkscape:export-ydpi="150" />
    <path
       style="fill:none;fill-opacity:0.75;fill-rule:evenodd;stroke:#000000;stroke-width:1px;stroke-linecap:butt;stroke-linejoin:miter;stroke-opacity:1"
       d="M 379.81736,483.14122 C 376.51113,489.75367 372.74629,497.93196 372.74629,497.78843 C 372.74629,498.46187 372.74629,499.1353 372.74629,499.80874 C 372.74629,504.00634 377.66247,513.91764 378.30213,516.47626 C 378.38379,516.80292 378.30213,515.80282 378.30213,515.4661"
       id="path2499"
       inkscape:export-filename="/home/arne/ews/Quelldateien/bilder-fuer-vobsy-steigerung/vost-lazaro-kunst-des-flirtens-15-name.png"
       inkscape:export-xdpi="150"
       inkscape:export-ydpi="150" />
    <path
       style="fill:none;fill-opacity:0.75;fill-rule:evenodd;stroke:#000000;stroke-width:1px;stroke-linecap:butt;stroke-linejoin:miter;stroke-opacity:1"
       d="M 382.84781,496.77828 C 383.59828,499.78015 380.85184,506.75201 383.35289,510.92042 C 384.58198,512.96889 388.28193,500.92243 388.40365,500.31382 C 389.63987,494.13274 388.12501,504.66796 389.41381,507.88996 C 389.69597,508.59538 391.69439,506.97773 391.93919,506.87981"
       id="path2501"
       inkscape:export-filename="/home/arne/ews/Quelldateien/bilder-fuer-vobsy-steigerung/vost-lazaro-kunst-des-flirtens-15-name.png"
       inkscape:export-xdpi="150"
       inkscape:export-ydpi="150" />
    <path
       style="fill:none;fill-opacity:0.75;fill-rule:evenodd;stroke:#000000;stroke-width:1px;stroke-linecap:butt;stroke-linejoin:miter;stroke-opacity:1"
       d="M 395.9798,495.26305 C 396.93458,497.65 396.49351,508.07271 396.98995,508.90011 C 397.15041,509.16755 402.54579,496.47309 402.54579,502.33412 C 402.54579,504.04917 403.25805,506.40049 403.55594,507.88996"
       id="path2503"
       inkscape:export-filename="/home/arne/ews/Quelldateien/bilder-fuer-vobsy-steigerung/vost-lazaro-kunst-des-flirtens-15-name.png"
       inkscape:export-xdpi="150"
       inkscape:export-ydpi="150" />
    <path
       style="fill:none;fill-opacity:0.75;fill-rule:evenodd;stroke:#000000;stroke-width:1px;stroke-linecap:butt;stroke-linejoin:miter;stroke-opacity:1"
       d="M 413.65747,497.28336 C 413.65747,499.00734 408.66364,496.83522 414.16254,502.33412 C 415.65043,503.82201 411.35944,509.96063 410.62701,511.42549"
       id="path2505"
       inkscape:export-filename="/home/arne/ews/Quelldateien/bilder-fuer-vobsy-steigerung/vost-lazaro-kunst-des-flirtens-15-name.png"
       inkscape:export-xdpi="150"
       inkscape:export-ydpi="150" />
    <path
       style="fill:none;fill-opacity:0.75;fill-rule:evenodd;stroke:#000000;stroke-width:1px;stroke-linecap:butt;stroke-linejoin:miter;stroke-opacity:1"
       d="M 423.75899,475.56508 C 428.69618,480.50227 419.23924,500.87077 423.75899,509.91027 C 424.13545,510.66319 425.10586,508.90011 425.7793,508.39504"
       id="path2507"
       inkscape:export-filename="/home/arne/ews/Quelldateien/bilder-fuer-vobsy-steigerung/vost-lazaro-kunst-des-flirtens-15-name.png"
       inkscape:export-xdpi="150"
       inkscape:export-ydpi="150" />
    <path
       style="fill:none;fill-opacity:0.75;fill-rule:evenodd;stroke:#000000;stroke-width:1px;stroke-linecap:butt;stroke-linejoin:miter;stroke-opacity:1"
       d="M 420.72854,492.73767 C 421.40503,494.09067 427.30405,491.59887 428.80976,491.22244 C 429.17498,491.13114 429.48319,490.88573 429.81991,490.71737"
       id="path2511"
       inkscape:export-filename="/home/arne/ews/Quelldateien/bilder-fuer-vobsy-steigerung/vost-lazaro-kunst-des-flirtens-15-name.png"
       inkscape:export-xdpi="150"
       inkscape:export-ydpi="150" />
    <path
       style="fill:none;fill-opacity:0.75;fill-rule:evenodd;stroke:#000000;stroke-width:1px;stroke-linecap:butt;stroke-linejoin:miter;stroke-opacity:1"
       d="M 444.9722,498.79859 C 444.9722,499.78028 443.96204,497.115 443.45697,496.27321 C 441.72473,493.38614 439.25104,507.2287 439.92143,509.91027 C 441.27082,515.30783 446.18794,502.44581 444.9722,498.79859 C 444.01982,495.94144 448.68022,493.71064 449.01281,490.71737 C 449.1627,489.36832 449.34952,488.02363 449.51788,486.67676 C 450.65493,477.58035 449.09807,481.61949 448.00265,488.19199 C 447.5313,491.02012 442.80168,513.5209 451.03311,509.40519"
       id="path2515"
       inkscape:export-filename="/home/arne/ews/Quelldateien/bilder-fuer-vobsy-steigerung/vost-lazaro-kunst-des-flirtens-15-name.png"
       inkscape:export-xdpi="150"
       inkscape:export-ydpi="150" />
    <path
       style="fill:none;fill-opacity:0.75;fill-rule:evenodd;stroke:#000000;stroke-width:1px;stroke-linecap:butt;stroke-linejoin:miter;stroke-opacity:1"
       d="M 455.09403,504.8595 C 454.6235,507.68266 460.41461,499.8433 459.13464,497.28336 C 458.32467,495.66342 452.53399,506.65369 455.09403,510.92042 C 456.28718,512.909 459.75841,509.94006 460.64987,509.40519"
       id="path2517"
       inkscape:export-filename="/home/arne/ews/Quelldateien/bilder-fuer-vobsy-steigerung/vost-lazaro-kunst-des-flirtens-15-name.png"
       inkscape:export-xdpi="150"
       inkscape:export-ydpi="150" />
    <path
       style="fill:none;fill-opacity:0.75;fill-rule:evenodd;stroke:#000000;stroke-width:1px;stroke-linecap:butt;stroke-linejoin:miter;stroke-opacity:1"
       d="M 470.75139,496.27321 C 471.73901,497.91924 466.91862,498.02645 466.20571,499.80874 C 464.4739,504.13824 469.04488,506.35681 465.70063,511.93057"
       id="path2519"
       inkscape:export-filename="/home/arne/ews/Quelldateien/bilder-fuer-vobsy-steigerung/vost-lazaro-kunst-des-flirtens-15-name.png"
       inkscape:export-xdpi="150"
       inkscape:export-ydpi="150" />
    <path
       style="fill:none;fill-opacity:0.75;fill-rule:evenodd;stroke:#000000;stroke-width:1px;stroke-linecap:butt;stroke-linejoin:miter;stroke-opacity:1"
       d="M 495.50013,482.13107 C 494.74721,484.01338 491.06106,481.41976 489.43921,482.63615 C 482.96405,487.49252 490.53506,496.7874 491.45952,502.33412 C 492.09007,506.11744 490.4572,511.93253 486.40876,510.92042"
       id="path2521"
       inkscape:export-filename="/home/arne/ews/Quelldateien/bilder-fuer-vobsy-steigerung/vost-lazaro-kunst-des-flirtens-15-name.png"
       inkscape:export-xdpi="150"
       inkscape:export-ydpi="150" />
    <path
       style="fill:none;fill-opacity:0.75;fill-rule:evenodd;stroke:#000000;stroke-width:1px;stroke-linecap:butt;stroke-linejoin:miter;stroke-opacity:1"
       d="M 477.82246,488.69706 C 478.30663,491.60207 480.28566,483.2034 482.36815,481.12092 C 487.59265,475.89642 486.3685,482.64621 492.46967,481.12092 C 493.47364,480.86993 495.06971,480.00662 496.00521,479.60569"
       id="path2523"
       inkscape:export-filename="/home/arne/ews/Quelldateien/bilder-fuer-vobsy-steigerung/vost-lazaro-kunst-des-flirtens-15-name.png"
       inkscape:export-xdpi="150"
       inkscape:export-ydpi="150" />
    <path
       style="fill:none;fill-opacity:0.75;fill-rule:evenodd;stroke:#000000;stroke-width:1px;stroke-linecap:butt;stroke-linejoin:miter;stroke-opacity:1"
       d="M 483.3783,503.84935 C 486.37003,503.10142 489.30072,497.86175 493.9849,498.79859"
       id="path2525"
       inkscape:export-filename="/home/arne/ews/Quelldateien/bilder-fuer-vobsy-steigerung/vost-lazaro-kunst-des-flirtens-15-name.png"
       inkscape:export-xdpi="150"
       inkscape:export-ydpi="150" />
    <path
       style="fill:none;fill-opacity:0.75;fill-rule:evenodd;stroke:#000000;stroke-width:1px;stroke-linecap:butt;stroke-linejoin:miter;stroke-opacity:1"
       d="M 499.54074,500.81889 C 501.98308,500.20831 504.44237,486.08023 503.58135,482.63615 C 503.43207,482.03905 496.10241,491.65003 499.54074,500.81889 C 501.34393,505.62741 496.76139,507.88996 503.58135,507.88996"
       id="path2527"
       inkscape:export-filename="/home/arne/ews/Quelldateien/bilder-fuer-vobsy-steigerung/vost-lazaro-kunst-des-flirtens-15-name.png"
       inkscape:export-xdpi="150"
       inkscape:export-ydpi="150" />
    <path
       style="fill:none;fill-opacity:0.75;fill-rule:evenodd;stroke:#000000;stroke-width:1px;stroke-linecap:butt;stroke-linejoin:miter;stroke-opacity:1"
       d="M 508.63211,497.28336 C 509.75529,500.2785 508.10623,503.72451 508.63211,506.87981 C 508.80047,507.88996 508.96883,504.8595 509.13719,503.84935"
       id="path2529"
       inkscape:export-filename="/home/arne/ews/Quelldateien/bilder-fuer-vobsy-steigerung/vost-lazaro-kunst-des-flirtens-15-name.png"
       inkscape:export-xdpi="150"
       inkscape:export-ydpi="150" />
    <path
       style="fill:none;fill-opacity:0.75;fill-rule:evenodd;stroke:#000000;stroke-width:1px;stroke-linecap:butt;stroke-linejoin:miter;stroke-opacity:1"
       d="M 509.13719,486.67676 C 509.13719,486.67676 509.13719,486.67676 509.13719,486.67676 z"
       id="path2531"
       inkscape:export-filename="/home/arne/ews/Quelldateien/bilder-fuer-vobsy-steigerung/vost-lazaro-kunst-des-flirtens-15-name.png"
       inkscape:export-xdpi="150"
       inkscape:export-ydpi="150" />
    <path
       style="fill:none;fill-opacity:0.75;fill-rule:evenodd;stroke:#000000;stroke-width:1px;stroke-linecap:butt;stroke-linejoin:miter;stroke-opacity:1"
       d="M 511.15749,493.74782 C 511.85824,497.95233 513.1778,502.11223 513.1778,506.37473 C 513.1778,506.47751 512.86651,496.3701 517.72348,498.79859"
       id="path2533"
       inkscape:export-filename="/home/arne/ews/Quelldateien/bilder-fuer-vobsy-steigerung/vost-lazaro-kunst-des-flirtens-15-name.png"
       inkscape:export-xdpi="150"
       inkscape:export-ydpi="150" />
    <path
       style="fill:none;fill-opacity:0.75;fill-rule:evenodd;stroke:#000000;stroke-width:1px;stroke-linecap:butt;stroke-linejoin:miter;stroke-opacity:1"
       d="M 526.30978,484.15138 C 526.30978,489.79206 521.88228,498.02481 525.80471,505.86966 C 526.69134,507.64292 528.57169,504.20065 528.83516,503.84935"
       id="path2535"
       inkscape:export-filename="/home/arne/ews/Quelldateien/bilder-fuer-vobsy-steigerung/vost-lazaro-kunst-des-flirtens-15-name.png"
       inkscape:export-xdpi="150"
       inkscape:export-ydpi="150" />
    <path
       style="fill:none;fill-opacity:0.75;fill-rule:evenodd;stroke:#000000;stroke-width:1px;stroke-linecap:butt;stroke-linejoin:miter;stroke-opacity:1"
       d="M 521.25902,491.72752 C 521.554,492.31748 524.71184,493.39732 526.81486,493.74782"
       id="path2539"
       inkscape:export-filename="/home/arne/ews/Quelldateien/bilder-fuer-vobsy-steigerung/vost-lazaro-kunst-des-flirtens-15-name.png"
       inkscape:export-xdpi="150"
       inkscape:export-ydpi="150" />
    <path
       style="fill:none;fill-opacity:0.75;fill-rule:evenodd;stroke:#000000;stroke-width:1px;stroke-linecap:butt;stroke-linejoin:miter;stroke-opacity:1"
       d="M 535.90623,500.81889 C 536.38939,501.78521 541.7765,491.82284 534.89608,495.26305 C 530.1005,497.66084 530.71095,509.18878 537.92654,507.38488 C 538.51544,507.23766 538.93669,506.71145 539.44176,506.37473"
       id="path2541"
       inkscape:export-filename="/home/arne/ews/Quelldateien/bilder-fuer-vobsy-steigerung/vost-lazaro-kunst-des-flirtens-15-name.png"
       inkscape:export-xdpi="150"
       inkscape:export-ydpi="150" />
    <path
       style="fill:none;fill-opacity:0.75;fill-rule:evenodd;stroke:#000000;stroke-width:1px;stroke-linecap:butt;stroke-linejoin:miter;stroke-opacity:1"
       d="M 543.98745,496.27321 C 547.09505,495.49631 542.29272,502.89552 543.48237,505.86966 C 543.89316,506.89661 544.42366,498.8158 548.53314,497.78843 C 549.13233,497.63864 546.39099,508.67803 553.5839,506.87981"
       id="path2543"
       inkscape:export-filename="/home/arne/ews/Quelldateien/bilder-fuer-vobsy-steigerung/vost-lazaro-kunst-des-flirtens-15-name.png"
       inkscape:export-xdpi="150"
       inkscape:export-ydpi="150" />
    <path
       style="fill:none;fill-opacity:0.75;fill-rule:evenodd;stroke:#000000;stroke-width:1px;stroke-linecap:butt;stroke-linejoin:miter;stroke-opacity:1"
       d="M 563.68543,497.78843 C 563.69916,497.785 561.31768,494.09526 556.61436,498.79859 C 555.45692,499.95602 558.85566,507.68999 556.61436,511.42549 C 556.42067,511.74831 555.94092,511.08878 555.60421,510.92042"
       id="path2545"
       inkscape:export-filename="/home/arne/ews/Quelldateien/bilder-fuer-vobsy-steigerung/vost-lazaro-kunst-des-flirtens-15-name.png"
       inkscape:export-xdpi="150"
       inkscape:export-ydpi="150" />
    <path
       style="fill:none;fill-opacity:0.75;fill-rule:evenodd;stroke:#000000;stroke-width:1px;stroke-linecap:butt;stroke-linejoin:miter;stroke-opacity:1"
       d="M 508.63211,484.15138 C 507.02438,486.83093 508.37224,487.3694 509.64226,487.68691 C 512.12447,488.30746 507.71408,479.56123 509.13719,486.67676"
       id="path2547"
       inkscape:export-filename="/home/arne/ews/Quelldateien/bilder-fuer-vobsy-steigerung/vost-lazaro-kunst-des-flirtens-15-name.png"
       inkscape:export-xdpi="150"
       inkscape:export-ydpi="150" />
    <path
       style="fill:none;fill-opacity:0.75;fill-rule:evenodd;stroke:#000000;stroke-width:1px;stroke-linecap:butt;stroke-linejoin:miter;stroke-opacity:1"
       d="M 574.27172,491.72752 C 577.12343,489.92047 582.87147,485.65315 586.39355,482.13107 C 588.61755,479.90708 584.485,488.13832 583.86817,491.22244 C 582.56267,497.74996 580.6154,507.58671 582.35294,511.93057"
       id="path2549"
       inkscape:export-filename="/home/arne/ews/Quelldateien/bilder-fuer-vobsy-steigerung/vost-lazaro-kunst-des-flirtens-15-wert-1.png"
       inkscape:export-xdpi="150"
       inkscape:export-ydpi="150" />
    <path
       style="fill:none;fill-opacity:0.75;fill-rule:evenodd;stroke:#000000;stroke-width:1px;stroke-linecap:butt;stroke-linejoin:miter;stroke-opacity:1"
       d="M 594.47477,482.63615 C 594.14791,484.27045 598.01031,484.50501 598.01031,486.17168 C 598.01031,495.86412 593.2808,489.15576 598.01031,503.34427 C 599.63836,508.22844 593.1811,508.7867 590.93924,507.88996"
       id="path2551"
       inkscape:export-filename="/home/arne/ews/Quelldateien/bilder-fuer-vobsy-steigerung/vost-lazaro-kunst-des-flirtens-15-wert-1.png"
       inkscape:export-xdpi="150"
       inkscape:export-ydpi="150" />
    <path
       style="fill:none;fill-opacity:0.75;fill-rule:evenodd;stroke:#000000;stroke-width:1px;stroke-linecap:butt;stroke-linejoin:miter;stroke-opacity:1"
       d="M 620.23366,489.20214 C 618.37408,487.34256 623.42484,485.00081 625.28443,483.14122 C 625.76608,482.65957 625.7895,494.49171 625.7895,503.84935 C 625.7895,506.16443 625.7895,506.50647 625.7895,509.40519"
       id="path2563"
       inkscape:export-filename="/home/arne/ews/Quelldateien/bilder-fuer-vobsy-steigerung/vost-lazaro-kunst-des-flirtens-15-wert-2.png"
       inkscape:export-xdpi="150"
       inkscape:export-ydpi="150" />
    <path
       style="fill:none;fill-opacity:0.75;fill-rule:evenodd;stroke:#000000;stroke-width:1px;stroke-linecap:butt;stroke-linejoin:miter;stroke-opacity:1"
       d="M 634.3758,505.86966 C 634.90316,506.74859 637.06794,510.5869 638.41641,507.88996 C 643.88295,496.95687 635.27382,497.56417 633.87072,494.75798 C 632.39317,491.80286 633.51532,485.91203 634.3758,483.6463 C 631.13692,490.12405 642.4293,485.68047 642.45702,485.6666"
       id="path2577"
       inkscape:export-filename="/home/arne/ews/Quelldateien/bilder-fuer-vobsy-steigerung/vost-lazaro-kunst-des-flirtens-15-wert-2.png"
       inkscape:export-xdpi="150"
       inkscape:export-ydpi="150" />
    <path
       style="fill:none;fill-opacity:0.75;fill-rule:evenodd;stroke:#000000;stroke-width:1px;stroke-linecap:butt;stroke-linejoin:miter;stroke-opacity:1"
       d="M 274.50895,564.97337 C 275.92511,564.26529 284.2937,564.46829 287.64094,564.46829 C 290.55775,564.46829 293.619,564.61528 296.22723,563.96322"
       id="path2581"
       inkscape:export-filename="/home/arne/ews/Quelldateien/bilder-fuer-vobsy-steigerung/vost-lazaro-kunst-des-flirtens-17-mod.png"
       inkscape:export-xdpi="150"
       inkscape:export-ydpi="150" />
    <path
       style="fill:none;fill-opacity:0.75;fill-rule:evenodd;stroke:#000000;stroke-width:1px;stroke-linecap:butt;stroke-linejoin:miter;stroke-opacity:1"
       d="M 286.12571,552.34646 C 289.99796,552.34646 285.18655,560.20658 286.12571,563.96322 C 287.1652,568.12117 286.63078,573.22825 286.63078,577.60028 C 286.63078,577.85424 286.22851,579.61167 286.12571,580.12566"
       id="path2583"
       inkscape:export-filename="/home/arne/ews/Quelldateien/bilder-fuer-vobsy-steigerung/vost-lazaro-kunst-des-flirtens-17-mod.png"
       inkscape:export-xdpi="150"
       inkscape:export-ydpi="150" />
    <path
       style="fill:none;fill-opacity:0.75;fill-rule:evenodd;stroke:#000000;stroke-width:1px;stroke-linecap:butt;stroke-linejoin:miter;stroke-opacity:1"
       d="M 309.61176,563.44835 C 310.90114,562.76179 316.06648,563.09736 318.70313,562.4382 C 321.68303,561.69322 324.02451,564.32319 326.78435,562.94327 C 327.70032,562.48529 328.8213,563.19997 329.81481,563.44835"
       id="path2595"
       inkscape:export-filename="/home/arne/ews/Quelldateien/bilder-fuer-vobsy-steigerung/vost-lazaro-kunst-des-flirtens-17-mod.png"
       inkscape:export-xdpi="150"
       inkscape:export-ydpi="150" />
    <path
       style="fill:none;fill-opacity:0.75;fill-rule:evenodd;stroke:#000000;stroke-width:1px;stroke-linecap:butt;stroke-linejoin:miter;stroke-opacity:1"
       d="M 319.2082,552.33667 C 322.52107,550.68024 319.2082,559.74446 319.2082,563.44835 C 319.2082,567.48896 319.2082,571.52957 319.2082,575.57018 C 319.2082,576.24362 319.2082,576.91705 319.2082,577.59049"
       id="path2597"
       inkscape:export-filename="/home/arne/ews/Quelldateien/bilder-fuer-vobsy-steigerung/vost-lazaro-kunst-des-flirtens-17-mod.png"
       inkscape:export-xdpi="150"
       inkscape:export-ydpi="150" />
    <path
       style="fill:none;fill-opacity:0.75;fill-rule:evenodd;stroke:#000000;stroke-width:1px;stroke-linecap:butt;stroke-linejoin:miter;stroke-opacity:1"
       d="M 576.7971,553.34682 C 576.7971,558.16067 580.33432,547.53803 585.3834,546.27576 C 585.94104,546.13635 582.35294,554.49416 582.35294,562.4382 C 582.35294,564.51244 581.34279,572.30054 581.34279,573.0448"
       id="path2599"
       inkscape:export-filename="/home/arne/ews/Quelldateien/bilder-fuer-vobsy-steigerung/vost-lazaro-kunst-des-flirtens-17-wert-1.png"
       inkscape:export-xdpi="150"
       inkscape:export-ydpi="150" />
    <path
       style="fill:none;fill-opacity:0.75;fill-rule:evenodd;stroke:#000000;stroke-width:1px;stroke-linecap:butt;stroke-linejoin:miter;stroke-opacity:1"
       d="M 592.45447,564.4585 C 592.95954,565.3003 593.05822,566.61929 593.9697,566.98388 C 600.03792,569.41117 600.70907,559.74697 595.99,557.38744 C 592.55824,555.67155 591.35001,550.41068 593.9697,547.79099 C 591.77568,546.91338 598.67774,548.29606 601.04076,548.29606"
       id="path2609"
       inkscape:export-filename="/home/arne/ews/Quelldateien/bilder-fuer-vobsy-steigerung/vost-lazaro-kunst-des-flirtens-17-wert-1.png"
       inkscape:export-xdpi="150"
       inkscape:export-ydpi="150" />
    <path
       style="fill:none;fill-opacity:0.75;fill-rule:evenodd;stroke:#000000;stroke-width:1px;stroke-linecap:butt;stroke-linejoin:miter;stroke-opacity:1"
       d="M 617.70828,550.82144 C 617.40802,552.92329 625.19615,544.10348 623.26412,551.8316 C 622.02005,556.80787 621.74889,563.84243 621.74889,569.00419"
       id="path2615"
       inkscape:export-filename="/home/arne/ews/Quelldateien/bilder-fuer-vobsy-steigerung/vost-lazaro-kunst-des-flirtens-17-wert-2.png"
       inkscape:export-xdpi="150"
       inkscape:export-ydpi="150" />
    <path
       style="fill:none;fill-opacity:0.75;fill-rule:evenodd;stroke:#000000;stroke-width:1px;stroke-linecap:butt;stroke-linejoin:miter;stroke-opacity:1"
       d="M 629.32504,550.82144 C 629.01973,551.5847 639.06407,547.72574 637.91133,552.33667 C 636.63199,557.45404 633.29232,563.90728 630.84026,567.99404"
       id="path2629"
       inkscape:export-filename="/home/arne/ews/Quelldateien/bilder-fuer-vobsy-steigerung/vost-lazaro-kunst-des-flirtens-17-wert-2.png"
       inkscape:export-xdpi="150"
       inkscape:export-ydpi="150" />
    <path
       style="fill:none;fill-opacity:0.75;fill-rule:evenodd;stroke:#000000;stroke-width:1px;stroke-linecap:butt;stroke-linejoin:miter;stroke-opacity:1"
       d="M 630.84026,557.89251 C 630.67077,558.57047 635.31377,559.49432 637.40626,559.91282"
       id="path2631"
       inkscape:export-filename="/home/arne/ews/Quelldateien/bilder-fuer-vobsy-steigerung/vost-lazaro-kunst-des-flirtens-17-wert-2.png"
       inkscape:export-xdpi="150"
       inkscape:export-ydpi="150" />
  </g>
</svg>
